<?xml version="1.0" encoding="UTF-8" standalone="no"?>
<!-- Generator: Adobe Illustrator 16.0.0, SVG Export Plug-In . SVG Version: 6.00 Build 0)  -->

<svg
   xmlns:dc="http://purl.org/dc/elements/1.1/"
   xmlns:cc="http://creativecommons.org/ns#"
   xmlns:rdf="http://www.w3.org/1999/02/22-rdf-syntax-ns#"
   xmlns:svg="http://www.w3.org/2000/svg"
   xmlns="http://www.w3.org/2000/svg"
   xmlns:sodipodi="http://sodipodi.sourceforge.net/DTD/sodipodi-0.dtd"
   xmlns:inkscape="http://www.inkscape.org/namespaces/inkscape"
   version="1.1"
   id="Capa_1"
   x="0px"
   y="0px"
   width="30"
   height="30"
   viewBox="0 0 33.789082 33.789082"
   xml:space="preserve"
   inkscape:version="0.91 r"
   sodipodi:docname="logo.svg"><metadata
     id="metadata43"><rdf:RDF><cc:Work
         rdf:about=""><dc:format>image/svg+xml</dc:format><dc:type
           rdf:resource="http://purl.org/dc/dcmitype/StillImage" /><dc:title></dc:title></cc:Work></rdf:RDF></metadata><defs
     id="defs41" /><sodipodi:namedview
     pagecolor="#ffffff"
     bordercolor="#666666"
     borderopacity="1"
     objecttolerance="10"
     gridtolerance="10"
     guidetolerance="10"
     inkscape:pageopacity="0"
     inkscape:pageshadow="2"
     inkscape:window-width="1920"
     inkscape:window-height="1148"
     id="namedview39"
     showgrid="false"
     inkscape:zoom="14.56"
     inkscape:cx="19.16717"
     inkscape:cy="18.70263"
     inkscape:window-x="0"
     inkscape:window-y="0"
     inkscape:window-maximized="1"
     inkscape:current-layer="Capa_1" /><g
     id="g3"
     transform="matrix(0.05859384,0,0,0.05859384,1.7443686e-4,6.5814629e-5)"><g
       id="g5"><path
         d="m 17.932,381.487 c 5.031,-5.904 10.278,-11.657 14.921,-17.858 5.969,-7.965 10.555,-16.749 14.153,-26.088 3.529,-9.168 7.65,-18.111 11.359,-27.214 1.607,-3.94 2.876,-8.025 4.207,-12.076 0.853,-2.6 2.595,-4.26 5.516,-5.643 0,1.555 0.012,2.803 0,4.051 -0.204,19.111 -0.49,38.222 -0.583,57.333 -0.045,9.232 2.586,18.078 4.565,27.001 0.657,2.966 1.542,5.879 2.326,8.812 1.44,5.41 0.551,10.625 -1,15.896 -2.281,7.76 -4.26,15.605 -6.369,23.415 -1.408,5.218 -3.06,10.388 -4.169,15.671 -2.55,12.146 -1.958,24.37 -0.253,36.564 0.901,6.431 1.832,12.804 -0.159,19.246 -0.775,2.513 -1.33,5.242 -1.229,7.842 0.188,4.77 3.387,7.854 8.115,8.348 4.521,0.473 9.054,0.914 13.591,1.122 5.94,0.273 11.905,0.62 17.837,0.367 7.14,-0.307 14.248,-1.257 21.375,-1.82 1.987,-0.159 2.317,-1.252 2.097,-2.827 -0.314,-2.24 -0.709,-4.468 -1.102,-6.851 0.327,-0.163 0.682,-0.379 1.065,-0.522 3.211,-1.187 4.578,-4.242 2.717,-7.147 -1.803,-2.815 -4.063,-5.374 -6.316,-7.866 -2.06,-2.281 -4.675,-4.104 -6.516,-6.532 -2.766,-3.66 -5.23,-7.577 -7.515,-11.562 -1.987,-3.469 -1.534,-7.377 -0.494,-10.987 1.697,-5.852 3.264,-11.857 5.948,-17.271 2.799,-5.646 6.365,-11.089 10.486,-15.854 5.202,-6.018 11.326,-11.24 17.014,-16.847 5.777,-5.688 9.723,-12.407 11.562,-20.363 0.722,-3.125 1.665,-6.205 2.697,-9.245 0.188,-0.547 1.314,-1.146 1.967,-1.102 7.487,0.481 14.957,1.281 22.448,1.579 4.867,0.196 9.768,-0.298 14.651,-0.478 1.224,-0.045 2.456,-0.036 3.68,-0.081 9.792,-0.343 19.621,-0.282 29.359,-1.184 6.475,-0.6 12.53,-3.374 18.34,-6.43 4.153,-2.188 8.4,-4.194 12.717,-6.337 2.823,2.864 4.345,6.414 5.267,10.262 2.852,11.922 3.717,24.093 4.447,36.275 0.388,6.442 1.057,12.885 1.044,19.327 -0.012,7.144 -0.771,14.279 -0.983,21.428 -0.114,3.835 0.596,7.711 0.314,11.521 -0.478,6.414 -1.297,12.815 -2.293,19.177 -0.327,2.08 -1.616,4.019 -2.509,6.001 -2.428,5.369 -1.877,10.103 1.795,13.55 0.738,0.694 1.954,1.289 2.929,1.253 10.465,-0.4 20.922,-1.008 31.387,-1.408 6.725,-0.257 13.461,-0.293 20.191,-0.326 0.895,-0.004 2.029,0.347 2.645,0.951 2.387,2.317 5.406,2.321 8.324,2.362 8.334,0.118 16.67,0.045 25.01,0.036 3.477,-0.004 6.969,0.176 10.42,-0.105 2.277,-0.184 4.508,-0.996 6.736,-1.607 1.256,-0.348 2.432,-1.017 3.701,-1.266 5.295,-1.027 5.365,-2.203 4.328,-7.642 -0.342,-1.795 -2.045,-3.35 -3.174,-4.978 -1.061,-1.53 -2.139,-3.056 -3.318,-4.5 -0.395,-0.485 -1.234,-0.592 -1.676,-1.057 -3.938,-4.125 -8.459,-7.806 -10.742,-13.248 -0.568,-1.347 -0.895,-2.844 -1.057,-4.3 -1.143,-10.155 -2.596,-20.294 -3.188,-30.482 -0.449,-7.728 0.277,-15.52 0.393,-23.284 0.094,-6.491 -0.082,-12.986 0.121,-19.474 0.242,-7.687 0.332,-15.419 1.25,-23.036 1.465,-12.134 1.281,-24.264 0.652,-36.377 -0.531,-10.237 -1.938,-20.429 -2.828,-30.653 -0.064,-0.775 0.697,-1.979 1.42,-2.411 7.863,-4.688 15.77,-9.311 23.713,-13.855 8.898,-5.088 17.854,-10.082 27.662,-15.61 1.689,1.946 3.627,4.3 5.691,6.532 1.836,1.979 3.865,3.778 5.713,5.744 2.371,2.518 4.77,5.022 6.916,7.724 2.102,2.644 3.879,3.627 5.531,2.505 1.91,-1.293 2.457,-4.912 1.021,-7.168 -0.557,-0.869 -1.201,-1.705 -1.926,-2.436 -5.549,-5.606 -8.111,-12.865 -11.057,-19.915 -0.27,-0.645 -0.561,-1.281 -1.041,-2.375 3.328,-1.559 6.646,-3.17 10.016,-4.659 2.311,-1.02 4.66,-1.979 7.055,-2.771 4.488,-1.485 7.891,-4.41 10.889,-7.895 1.857,-2.154 4.273,-3.37 6.672,-1.759 5.879,3.946 12.672,4.043 19.217,5.263 0.342,0.065 0.709,0.062 1.027,0.184 1.352,0.522 2.848,1.118 3.686,-0.526 0.457,-0.898 0.232,-2.146 0.371,-3.946 1.256,-1.734 3.928,-1.061 6.266,-1.338 2.588,-0.31 5.211,-0.58 7.811,-0.486 1.867,0.069 3.754,0.625 5.557,1.196 11.17,3.541 22.652,4.635 34.125,2.791 7.748,-1.245 15.684,-2.729 22.346,-7.609 4.424,-3.239 8.467,-6.732 9.502,-12.489 0.217,-1.179 0.033,-2.432 -0.395,-4.072 -11.465,10.592 -25.285,10.49 -39.865,10.241 3.773,-3.758 9.762,-4.892 9.334,-11.869 -5.006,1.832 -9.648,3.615 -14.354,5.227 -5.133,1.758 -10.334,3.195 -15.98,0.686 2.938,-1.041 5.797,-2.546 8.824,-3.036 10.527,-1.697 18.078,-7.414 23.994,-16.047 3.787,-5.528 6.707,-11.338 8.598,-17.74 1.99,-6.744 1.938,-13.635 1.631,-20.539 -0.375,-8.417 -3.889,-15.994 -6.602,-23.782 -2.791,-8.013 -4.332,-16.324 -3.301,-24.733 1.082,-8.776 3.998,-17.108 8.703,-24.713 2.102,-3.395 3.982,-6.944 6.299,-10.179 4.457,-6.222 10.461,-10.425 17.797,-12.697 2.061,-0.636 4.076,-1.436 6.145,-2.04 1.918,-0.559 1.67,-2.313 1.168,-3.178 -1.955,-3.382 -1.307,-6.989 -1.379,-10.535 -0.078,-3.521 -2.363,-5.528 -5.064,-3.562 -4.447,3.243 -9.682,3.68 -14.492,5.528 -9.566,3.676 -18.098,9.196 -25.352,16.32 -7.561,7.421 -14.199,15.557 -18.205,25.737 -3.342,8.495 -7.434,16.752 -8.957,25.786 -1.717,10.212 -1.529,20.481 0.527,30.743 0.99,4.941 1.064,10.086 1.244,15.149 0.045,1.306 -0.844,2.832 -1.705,3.941 -2.543,3.276 -5.283,6.393 -7.463,8.997 -4.316,-1.489 -8.322,-3.02 -12.416,-4.244 -4.133,-1.232 -7.895,-2.982 -11.305,-5.688 -2.713,-2.154 -5.838,-3.774 -8.691,-5.761 -4.998,-3.472 -9.861,-7.14 -14.9,-10.542 -3.533,-2.387 -7.176,-4.644 -10.93,-6.663 -6.123,-3.296 -12.312,-6.487 -18.592,-9.474 -5.818,-2.762 -12.154,-2.428 -18.303,-1.893 -8.584,0.747 -16.766,3.215 -24.229,7.67 -6.641,3.966 -13.207,8.062 -19.832,12.057 -3.631,2.187 -7.65,2.807 -11.828,2.717 -2.338,-0.049 -4.709,-0.273 -7.01,0.013 -3.736,0.465 -6.459,-1.934 -9.521,-3.162 -7.193,-2.885 -14.521,-4.827 -22.244,-5.508 -6.158,-0.542 -12.27,-1.566 -18.422,-2.187 -10.004,-1.008 -19.951,-0.881 -29.388,3.17 -5.504,2.362 -10.792,5.227 -16.304,7.556 -1.448,0.612 -3.452,0.379 -5.088,0.024 -6.373,-1.383 -12.689,-3.023 -19.049,-4.476 -5.667,-1.293 -11.396,-2.317 -17.03,-3.733 -10.216,-2.57 -19.812,0.429 -29.364,3.219 -6.928,2.024 -13.737,4.545 -20.42,7.283 -4.737,1.942 -9.347,4.341 -13.708,7.026 -7.087,4.361 -14.312,8.646 -20.771,13.843 -6.973,5.614 -13.411,11.979 -19.563,18.503 -5.483,5.81 -10.412,12.167 -15.3,18.507 -3.705,4.806 -7.315,9.755 -10.311,15.01 -3.872,6.797 -7.385,13.839 -10.473,21.024 -1.771,4.108 -2.423,8.699 -3.538,13.084 -1.179,4.644 -2.146,9.343 -3.492,13.934 -2.081,7.087 -4.3,14.137 -6.667,21.134 -1.893,5.603 -3.953,11.155 -6.189,16.631 -1.901,4.667 -4.104,9.212 -6.267,13.77 -2.991,6.308 -5.773,12.737 -9.205,18.805 -2.856,5.047 -6.202,9.91 -9.951,14.325 -1.971,2.313 -5.483,3.239 -7.952,5.23 -3.721,3.003 -6.418,6.801 -7.209,12.591 2.689,-1.232 4.912,-2.068 6.957,-3.224 4.495,-2.524 7.693,-6.506 10.978,-10.357 z m 287.341,86.969 c 1.379,-2.771 2.195,-5.933 2.689,-9.009 1.387,-8.588 2.514,-17.218 3.668,-25.843 0.967,-7.226 1.836,-14.463 2.75,-21.697 0.176,0.013 0.352,0.028 0.525,0.041 1.199,4.974 2.428,9.942 3.596,14.921 1.975,8.429 2.424,16.907 1.316,25.532 -0.641,5.002 -1.443,10.253 0.883,14.985 2.789,5.672 2.158,11.335 0.99,17.092 -0.693,3.431 -1.68,6.801 -2.736,10.991 -1.412,-1.705 -2.307,-2.717 -3.127,-3.786 -2.631,-3.456 -5.156,-6.993 -7.865,-10.388 -3.087,-3.855 -5.267,-7.657 -2.689,-12.839 z"
         id="path7"
         inkscape:connector-curvature="0"
         style="fill:#ffffff" /></g></g><g
     id="g9"
     transform="translate(0,-542.87791)" /><g
     id="g11"
     transform="translate(0,-542.87791)" /><g
     id="g13"
     transform="translate(0,-542.87791)" /><g
     id="g15"
     transform="translate(0,-542.87791)" /><g
     id="g17"
     transform="translate(0,-542.87791)" /><g
     id="g19"
     transform="translate(0,-542.87791)" /><g
     id="g21"
     transform="translate(0,-542.87791)" /><g
     id="g23"
     transform="translate(0,-542.87791)" /><g
     id="g25"
     transform="translate(0,-542.87791)" /><g
     id="g27"
     transform="translate(0,-542.87791)" /><g
     id="g29"
     transform="translate(0,-542.87791)" /><g
     id="g31"
     transform="translate(0,-542.87791)" /><g
     id="g33"
     transform="translate(0,-542.87791)" /><g
     id="g35"
     transform="translate(0,-542.87791)" /><g
     id="g37"
     transform="translate(0,-542.87791)" /></svg>